# xmcd
#
# Track frame offsets:
#	151
#	18704
#	46855
#	65380
#	77267
#	97072
#	112171
#	127124
#	145043
#	169764
#	190359
#
# Disc length: 2730 seconds
#
# Revision: 0
# Processed by: cddbd v1.5.2PL0 Copyright (c) Steve Scherf et al.
# Submitted via: dBpowerAMP V4.0
#
DISCID=970aa80b
DTITLE=Zucchero - Baila (sexy thing)
DYEAR=1900
DGENRE=Blues
TTITLE0=Baila
TTITLE1=Hey Man
TTITLE2=Karma, Stai Calma
TTITLE3=Baila Sexy Thing
TTITLE4=Baila new version
TTITLE5=Baila new versione 2
TTITLE6=Donne
TTITLE7=Senza una Donna
TTITLE8=Diamante
TTITLE9=Il Volo
TTITLE10=Per Colpa di Chi
EXTD=
EXTT0=
EXTT1=
EXTT2=
EXTT3=
EXTT4=
EXTT5=
EXTT6=
EXTT7=
EXTT8=
EXTT9=
EXTT10=
PLAYORDER=
